<svg width="56" height="56" viewBox="0 0 56 56" fill="none" xmlns="http://www.w3.org/2000/svg">
<rect width="56" height="56" rx="5" fill="#35A632"/>
<path d="M44.25 17H29.25L24.25 12H11.75C9.67969 12 8 13.6797 8 15.75V43.25C8 45.3203 9.67969 47 11.75 47H44.25C46.3203 47 48 45.3203 48 43.25V20.75C48 18.6797 46.3203 17 44.25 17ZM34.25 33.8047H29.875V38.1797C29.8047 39.2891 29.0391 40.125 28 40.125C26.9633 40.125 26.1953 39.2859 26.1953 38.3203V33.8047H21.6797C20.7109 33.8047 19.875 33.0391 19.875 32C19.875 30.9641 20.7141 30.1953 21.6797 30.1953H26.0547V25.6797C26.125 24.7109 26.9609 23.875 28 23.875C29.0391 23.875 29.8047 24.7141 29.8047 25.6797V30.125H34.1797C35.2891 30.125 36.125 30.9609 36.125 32C36.125 33.0391 35.2891 33.8047 34.25 33.8047Z" fill="white"/>
</svg>
