<svg width="56" height="56" viewBox="0 0 56 56" fill="none" xmlns="http://www.w3.org/2000/svg">
<rect width="56" height="56" rx="5" fill="#223C98"/>
<path d="M45 34.25V11.75C45 9.67891 43.3683 8 41.3571 8H18.2857C14.2619 8 11 11.3578 11 15.5V40.5C11 44.6422 14.2619 48 18.2857 48H42.5714C43.9125 48 45 46.8805 45 45.5703C45 44.6547 44.4986 43.8891 43.7857 43.4531V37.0969C44.5295 36.3438 45 35.3594 45 34.25ZM20.7143 20.9688C20.7143 20.2783 21.258 19.7188 21.9286 19.7188H25.9585V15.5C25.9585 14.8095 26.5022 14.25 27.1728 14.25H31.1192C31.7898 14.25 32.3335 14.8095 32.3335 15.5V19.7188H36.5C37.1706 19.7188 37.7143 20.2783 37.7143 20.9688V25.0312C37.7143 25.7216 37.1706 26.2812 36.5 26.2812H32.4018V30.5C32.4018 31.1903 31.8581 31.75 31.1875 31.75H27.2411C26.5705 31.75 26.0268 31.1903 26.0268 30.5V26.2812H21.9286C21.258 26.2812 20.7143 25.7216 20.7143 25.0312V20.9688ZM40.1429 43H18.2857C16.9447 43 15.8571 41.8805 15.8571 40.5C15.8571 39.1195 16.9447 38 18.2857 38H40.1429V43Z" fill="white"/>
</svg>
