<svg width="61" height="61" viewBox="0 0 61 61" fill="none" xmlns="http://www.w3.org/2000/svg">
<rect width="61" height="61" rx="10" fill="#CD8CCE"/>
<ellipse cx="23.333" cy="36.75" rx="5.75" ry="5.75" fill="white" stroke="white" stroke-width="2"/>
<path d="M42.6027 19.6023C43.1884 19.0165 43.1884 18.0668 42.6027 17.481C42.0169 16.8952 41.0671 16.8952 40.4813 17.481L42.6027 19.6023ZM43.3563 26.3107L44.417 27.3713L46.5383 25.25L45.4777 24.1893L43.3563 26.3107ZM39.523 26.3107L40.5837 27.3713L42.705 25.25L41.6443 24.1893L39.523 26.3107ZM26.1063 31.856C25.5205 32.4418 25.5205 33.3915 26.1063 33.9773C26.6921 34.5631 27.6419 34.5631 28.2277 33.9773L26.1063 31.856ZM35.792 24.2917L34.7313 23.231L34.7313 23.231L35.792 24.2917ZM38.5647 29.1857L39.6253 30.2463L41.7466 28.125L40.686 27.0643L38.5647 29.1857ZM40.686 21.519L42.6027 19.6023L40.4813 17.481L38.5647 19.3977L40.686 21.519ZM38.5647 21.519L43.3563 26.3107L45.4777 24.1893L40.686 19.3977L38.5647 21.519ZM38.7693 23.4357L40.686 21.519L38.5647 19.3977L36.648 21.3143L38.7693 23.4357ZM36.648 23.4357L39.523 26.3107L41.6443 24.1893L38.7693 21.3143L36.648 23.4357ZM28.2277 33.9773L36.8527 25.3523L34.7313 23.231L26.1063 31.856L28.2277 33.9773ZM36.8527 25.3523L38.7693 23.4357L36.648 21.3143L34.7313 23.231L36.8527 25.3523ZM34.7313 25.3523L38.5647 29.1857L40.686 27.0643L36.8527 23.231L34.7313 25.3523Z" fill="white"/>
</svg>
