<svg width="152" height="175" viewBox="0 0 152 175" fill="none" xmlns="http://www.w3.org/2000/svg">
<path fill-rule="evenodd" clip-rule="evenodd" d="M75.9598 87.5269L75.9573 52.5528L122.265 40.1417C124.144 39.6381 125.259 37.7066 124.755 35.8276C124.252 33.9485 122.32 32.8335 120.441 33.3372L75.9567 45.2596L75.9554 27.2365C75.9554 25.6405 77.0254 24.246 78.5642 23.834L133.344 9.17409C135.034 8.72097 135.955 9.39574 135.955 10.9282V114.563C135.955 116.838 133.888 119.459 131.521 120.094L73.3046 135.676C72.5186 135.897 72.3216 135.895 71.6284 135.695L13.4798 120.094C11.1118 119.459 9.04472 116.838 9.04472 114.563V10.9282C9.04472 9.39574 9.96647 8.72097 11.6549 9.17367L57.1628 21.3889C59.0416 21.8933 60.9736 20.779 61.4779 18.9002C61.9822 17.0213 60.8679 15.0894 58.9891 14.5851L13.4802 2.36954C7.39062 0.736815 2 4.68299 2 10.9282V114.563C2 120.065 6.24471 125.447 11.6549 126.898L69.738 142.481C71.6169 143.024 73.1502 143.036 75.1676 142.47L133.344 126.898C138.755 125.447 143 120.065 143 114.563V10.9282C143 4.68299 137.609 0.736815 131.521 2.36928L76.7426 17.0289C72.1225 18.2659 68.9107 22.4519 68.9107 27.2367L68.9122 47.1477L64.323 48.3776C62.444 48.8812 61.329 50.8127 61.8326 52.6918C62.3362 54.5708 64.2677 55.6858 66.1467 55.1822L68.9127 54.4409L68.9152 89.4149L64.323 90.6457C62.444 91.1493 61.329 93.0808 61.8326 94.9599C62.3362 96.8389 64.2677 97.9539 66.1467 97.4503L68.9157 96.7081L68.9178 124.997C68.9179 126.942 70.495 128.519 72.4404 128.519C74.3857 128.518 75.9626 126.941 75.9625 124.996L75.9603 94.8201L122.265 82.4098C124.144 81.9062 125.259 79.9747 124.755 78.0957C124.252 76.2166 122.32 75.1016 120.441 75.6052L75.9598 87.5269ZM87.6697 70.402L122.541 61.2791C124.423 60.7868 125.55 58.8619 125.057 56.9799C124.565 55.0979 122.64 53.9714 120.758 54.4638L85.8867 63.5867C84.0047 64.079 82.8782 66.0038 83.3705 67.8859C83.8629 69.7679 85.7877 70.8944 87.6697 70.402ZM97.7152 110.124L87.5144 112.857C85.6354 113.361 83.7039 112.246 83.2004 110.367C82.6969 108.488 83.812 106.556 85.6911 106.053L95.8918 103.319C97.7709 102.816 99.7023 103.931 100.206 105.81C100.709 107.689 99.5942 109.62 97.7152 110.124Z" fill="white"/>
<path d="M75.9573 52.5528L75.4395 50.621L73.9572 51.0183L73.9573 52.553L75.9573 52.5528ZM75.9598 87.5269L73.9598 87.527L73.96 90.1335L76.4775 89.4587L75.9598 87.5269ZM122.265 40.1417L122.783 42.0735H122.783L122.265 40.1417ZM124.755 35.8276L126.687 35.3098L124.755 35.8276ZM120.441 33.3372L119.923 31.4053L120.441 33.3372ZM75.9567 45.2596L73.9567 45.2598L73.9569 47.8662L76.4745 47.1914L75.9567 45.2596ZM75.9554 27.2365H73.9554V27.2366L75.9554 27.2365ZM78.5642 23.834L78.0471 21.902L78.0469 21.9021L78.5642 23.834ZM133.344 9.17409L133.861 11.1061L133.861 11.1059L133.344 9.17409ZM131.521 120.094L132.038 122.026L132.039 122.025L131.521 120.094ZM73.3046 135.676L72.7875 133.744L72.776 133.747L72.7646 133.75L73.3046 135.676ZM71.6284 135.695L72.1835 133.773L72.1651 133.768L72.1466 133.763L71.6284 135.695ZM13.4798 120.094L13.9981 118.162L13.9977 118.162L13.4798 120.094ZM11.6549 9.17367L12.1734 7.24204L12.1728 7.2419L11.6549 9.17367ZM57.1628 21.3889L57.6813 19.4573L57.1628 21.3889ZM61.4779 18.9002L59.5463 18.3817L61.4779 18.9002ZM58.9891 14.5851L59.5076 12.6535L58.9891 14.5851ZM13.4802 2.36954L13.9987 0.437912L13.9982 0.437764L13.4802 2.36954ZM11.6549 126.898L12.1731 124.966L12.1728 124.966L11.6549 126.898ZM69.738 142.481L70.2937 140.559L70.2751 140.554L70.2563 140.549L69.738 142.481ZM75.1676 142.47L74.6505 140.538L74.6387 140.541L74.6269 140.544L75.1676 142.47ZM133.344 126.898L133.861 128.83L133.862 128.83L133.344 126.898ZM131.521 2.36928L132.038 4.30129L132.039 4.30105L131.521 2.36928ZM76.7426 17.0289L76.2256 15.0969L76.2254 15.097L76.7426 17.0289ZM68.9107 27.2367H66.9107V27.2369L68.9107 27.2367ZM68.9122 47.1477L69.4299 49.0795L70.9123 48.6822L70.9122 47.1475L68.9122 47.1477ZM64.323 48.3776L64.8408 50.3094L64.323 48.3776ZM61.8326 52.6918L63.7644 52.174V52.174L61.8326 52.6918ZM66.1467 55.1822L65.629 53.2504L66.1467 55.1822ZM68.9127 54.4409L70.9127 54.4407L70.9125 51.8343L68.3949 52.509L68.9127 54.4409ZM68.9152 89.4149L69.433 91.3468L70.9153 90.9495L70.9152 89.4148L68.9152 89.4149ZM64.323 90.6457L64.8407 92.5775H64.8408L64.323 90.6457ZM61.8326 94.9599L63.7644 94.4421V94.4421L61.8326 94.9599ZM66.1467 97.4503L66.6645 99.3821L66.1467 97.4503ZM68.9157 96.7081L70.9157 96.708L70.9155 94.1016L68.398 94.7763L68.9157 96.7081ZM68.9178 124.997L70.9178 124.996L68.9178 124.997ZM72.4404 128.519L72.4405 130.519H72.4405L72.4404 128.519ZM75.9625 124.996L77.9625 124.996L75.9625 124.996ZM75.9603 94.8201L75.4426 92.8883L73.9602 93.2856L73.9603 94.8202L75.9603 94.8201ZM122.265 82.4098L122.783 84.3416L122.783 84.3416L122.265 82.4098ZM120.441 75.6052L119.923 73.6734L120.441 75.6052ZM122.541 61.2791L123.047 63.214V63.214L122.541 61.2791ZM87.6697 70.402L87.1635 68.4671L87.6697 70.402ZM125.057 56.9799L123.122 57.4861L125.057 56.9799ZM120.758 54.4638L121.264 56.3987V56.3987L120.758 54.4638ZM85.8867 63.5867L85.3805 61.6518V61.6518L85.8867 63.5867ZM83.3705 67.8859L81.4357 68.3921L83.3705 67.8859ZM87.5144 112.857L86.9968 110.925L87.5144 112.857ZM97.7152 110.124L98.2328 112.056H98.2328L97.7152 110.124ZM83.2004 110.367L81.2686 110.884L83.2004 110.367ZM85.6911 106.053L85.1734 104.121H85.1734L85.6911 106.053ZM95.8918 103.319L96.4095 105.251L95.8918 103.319ZM100.206 105.81L102.138 105.292L100.206 105.81ZM73.9573 52.553L73.9598 87.527L77.9598 87.5267L77.9573 52.5527L73.9573 52.553ZM121.747 38.2099L75.4395 50.621L76.475 54.4846L122.783 42.0735L121.747 38.2099ZM122.824 36.3453C123.041 37.1574 122.559 37.9922 121.747 38.2099L122.783 42.0735C125.729 41.284 127.477 38.2558 126.687 35.3098L122.824 36.3453ZM120.959 35.269C121.771 35.0513 122.606 35.5332 122.824 36.3453L126.687 35.3098C125.898 32.3639 122.869 30.6158 119.923 31.4053L120.959 35.269ZM76.4745 47.1914L120.959 35.269L119.923 31.4053L75.439 43.3278L76.4745 47.1914ZM73.9554 27.2366L73.9567 45.2598L77.9567 45.2595L77.9554 27.2363L73.9554 27.2366ZM78.0469 21.9021C75.6323 22.5486 73.9554 24.7364 73.9554 27.2365H77.9554C77.9554 26.5446 78.4184 25.9435 79.0814 25.766L78.0469 21.9021ZM132.826 7.24208L78.0471 21.902L79.0812 25.7661L133.861 11.1061L132.826 7.24208ZM137.955 10.9282C137.955 9.79977 137.606 8.47635 136.416 7.65838C135.281 6.87808 133.93 6.94632 132.826 7.24232L133.861 11.1059C133.992 11.0709 134.095 11.0521 134.174 11.0429C134.253 11.0337 134.3 11.0348 134.32 11.0363C134.34 11.0377 134.328 11.039 134.295 11.0281C134.26 11.0167 134.208 10.9944 134.15 10.9547C134.092 10.9147 134.042 10.8667 134.003 10.817C133.964 10.7683 133.945 10.729 133.938 10.7109C133.925 10.6808 133.955 10.7363 133.955 10.9282H137.955ZM137.955 114.563V10.9282H133.955V114.563H137.955ZM132.039 122.025C133.721 121.574 135.171 120.467 136.189 119.19C137.201 117.922 137.955 116.272 137.955 114.563H133.955C133.955 115.129 133.676 115.926 133.062 116.696C132.455 117.458 131.688 117.978 131.003 118.162L132.039 122.025ZM73.8218 137.608L132.038 122.026L131.004 118.162L72.7875 133.744L73.8218 137.608ZM71.0733 137.616C71.4354 137.721 71.9008 137.848 72.4499 137.843C72.9769 137.838 73.4516 137.712 73.8447 137.602L72.7646 133.75C72.5811 133.802 72.4814 133.826 72.4196 133.838C72.3677 133.849 72.3755 133.844 72.4135 133.843C72.4943 133.842 72.5146 133.869 72.1835 133.773L71.0733 137.616ZM12.9615 122.025L71.1101 137.626L72.1466 133.763L13.9981 118.162L12.9615 122.025ZM7.04472 114.563C7.04472 116.272 7.79915 117.922 8.81071 119.19C9.82874 120.467 11.2795 121.574 12.9619 122.025L13.9977 118.162C13.3121 117.978 12.5453 117.458 11.9378 116.696C11.3238 115.926 11.0447 115.129 11.0447 114.563H7.04472ZM7.04472 10.9282V114.563H11.0447V10.9282H7.04472ZM12.1728 7.2419C11.0692 6.94598 9.7181 6.87809 8.58324 7.65866C7.39393 8.47668 7.04472 9.79975 7.04472 10.9282H11.0447C11.0447 10.7363 11.0747 10.6807 11.0623 10.7108C11.0548 10.7288 11.0357 10.768 10.9974 10.8166C10.9584 10.8663 10.9083 10.9143 10.8501 10.9543C10.7924 10.994 10.7407 11.0163 10.7055 11.0278C10.6717 11.0388 10.6603 11.0375 10.6798 11.0361C10.6998 11.0346 10.7468 11.0335 10.8253 11.0426C10.9036 11.0518 11.0069 11.0706 11.137 11.1054L12.1728 7.2419ZM57.6813 19.4573L12.1734 7.24204L11.1364 11.1053L56.6443 23.3206L57.6813 19.4573ZM59.5463 18.3817C59.3283 19.1937 58.4933 19.6753 57.6813 19.4573L56.6443 23.3206C59.59 24.1112 62.6188 22.3643 63.4095 19.4186L59.5463 18.3817ZM58.4706 16.5167C59.2826 16.7347 59.7642 17.5696 59.5463 18.3817L63.4095 19.4186C64.2002 16.473 62.4532 13.4441 59.5076 12.6535L58.4706 16.5167ZM12.9617 4.30116L58.4706 16.5167L59.5076 12.6535L13.9987 0.437912L12.9617 4.30116ZM4 10.9282C4 8.40916 5.07111 6.4698 6.64745 5.3014C8.23104 4.12763 10.4634 3.63132 12.9623 4.30131L13.9982 0.437764C10.4074 -0.524965 6.89969 0.13545 4.26557 2.08789C1.6242 4.0457 0 7.20203 0 10.9282H4ZM4 114.563V10.9282H0V114.563H4ZM12.1728 124.966C7.6015 123.741 4 119.124 4 114.563H0C0 121.006 4.88792 127.154 11.137 128.83L12.1728 124.966ZM70.2563 140.549L12.1731 124.966L11.1367 128.83L69.2198 144.412L70.2563 140.549ZM74.6269 140.544C72.9583 141.013 71.8048 140.997 70.2937 140.559L69.1823 144.402C71.4289 145.052 73.3421 145.06 75.7083 144.395L74.6269 140.544ZM132.827 124.966L74.6505 140.538L75.6847 144.402L133.861 128.83L132.827 124.966ZM141 114.563C141 119.124 137.399 123.74 132.826 124.967L133.862 128.83C140.112 127.154 145 121.007 145 114.563H141ZM141 10.9282V114.563H145V10.9282H141ZM132.039 4.30105C134.537 3.63121 136.769 4.12751 138.353 5.30132C139.929 6.46976 141 8.40915 141 10.9282H145C145 7.20204 143.376 4.04573 140.735 2.0879C138.101 0.135436 134.593 -0.525121 131.003 0.437504L132.039 4.30105ZM77.2597 18.9609L132.038 4.30129L131.004 0.437264L76.2256 15.0969L77.2597 18.9609ZM70.9107 27.2367C70.9107 23.3568 73.5148 19.9635 77.2599 18.9609L76.2254 15.097C70.7302 16.5682 66.9107 21.5471 66.9107 27.2367H70.9107ZM70.9122 47.1475L70.9107 27.2366L66.9107 27.2369L66.9122 47.1478L70.9122 47.1475ZM64.8408 50.3094L69.4299 49.0795L68.3944 45.2158L63.8052 46.4458L64.8408 50.3094ZM63.7644 52.174C63.5467 51.3619 64.0286 50.5271 64.8408 50.3094L63.8052 46.4458C60.8593 47.2354 59.1112 50.2636 59.9008 53.2095L63.7644 52.174ZM65.629 53.2504C64.8169 53.468 63.9821 52.9861 63.7644 52.174L59.9008 53.2095C60.6903 56.1555 63.7185 57.9036 66.6645 57.114L65.629 53.2504ZM68.3949 52.509L65.629 53.2504L66.6645 57.114L69.4304 56.3727L68.3949 52.509ZM70.9152 89.4148L70.9127 54.4407L66.9127 54.441L66.9152 89.4151L70.9152 89.4148ZM64.8408 92.5775L69.433 91.3468L68.3974 87.4831L63.8052 88.7139L64.8408 92.5775ZM63.7644 94.4421C63.5467 93.63 64.0286 92.7952 64.8407 92.5775L63.8052 88.7139C60.8593 89.5034 59.1112 92.5317 59.9008 95.4776L63.7644 94.4421ZM65.629 95.5185C64.8168 95.7361 63.9821 95.2542 63.7644 94.4421L59.9008 95.4776C60.6903 98.4236 63.7185 100.172 66.6645 99.3821L65.629 95.5185ZM68.398 94.7763L65.629 95.5185L66.6645 99.3821L69.4335 98.64L68.398 94.7763ZM70.9178 124.996L70.9157 96.708L66.9157 96.7083L66.9178 124.997L70.9178 124.996ZM72.4402 126.519C71.5994 126.519 70.9178 125.837 70.9178 124.996L66.9178 124.997C66.918 128.047 69.3906 130.519 72.4405 130.519L72.4402 126.519ZM73.9625 124.996C73.9625 125.837 73.281 126.519 72.4402 126.519L72.4405 130.519C75.4904 130.518 77.9627 128.046 77.9625 124.996L73.9625 124.996ZM73.9603 94.8202L73.9625 124.996L77.9625 124.996L77.9603 94.82L73.9603 94.8202ZM121.747 80.478L75.4426 92.8883L76.4781 96.7519L122.783 84.3416L121.747 80.478ZM122.824 78.6134C123.041 79.4255 122.559 80.2603 121.747 80.478L122.783 84.3416C125.729 83.5521 127.477 80.5239 126.687 77.5779L122.824 78.6134ZM120.959 77.5371C121.771 77.3194 122.606 77.8013 122.824 78.6134L126.687 77.5779C125.898 74.632 122.869 72.8839 119.923 73.6734L120.959 77.5371ZM76.4775 89.4587L120.959 77.5371L119.923 73.6734L75.442 85.5951L76.4775 89.4587ZM122.035 59.3442L87.1635 68.4671L88.1759 72.3369L123.047 63.214L122.035 59.3442ZM123.122 57.4861C123.335 58.2995 122.848 59.1314 122.035 59.3442L123.047 63.214C125.998 62.4421 127.764 59.4244 126.992 56.4737L123.122 57.4861ZM121.264 56.3987C122.078 56.1859 122.91 56.6727 123.122 57.4861L126.992 56.4737C126.22 53.5231 123.202 51.757 120.252 52.5289L121.264 56.3987ZM86.3929 65.5216L121.264 56.3987L120.252 52.5289L85.3805 61.6518L86.3929 65.5216ZM85.3054 67.3797C85.0926 66.5663 85.5795 65.7344 86.3929 65.5216L85.3805 61.6518C82.4299 62.4237 80.6637 65.4414 81.4357 68.3921L85.3054 67.3797ZM87.1635 68.4671C86.3501 68.6799 85.5182 68.1931 85.3054 67.3797L81.4357 68.3921C82.2076 71.3427 85.2253 73.1088 88.1759 72.3369L87.1635 68.4671ZM88.0321 114.789L98.2328 112.056L97.1975 108.192L86.9968 110.925L88.0321 114.789ZM81.2686 110.884C82.058 113.83 85.0861 115.579 88.0321 114.789L86.9968 110.925C86.1846 111.143 85.3499 110.661 85.1323 109.849L81.2686 110.884ZM85.1734 104.121C82.2274 104.91 80.4792 107.938 81.2686 110.884L85.1323 109.849C84.9146 109.037 85.3966 108.202 86.2087 107.984L85.1734 104.121ZM95.3742 101.387L85.1734 104.121L86.2087 107.984L96.4095 105.251L95.3742 101.387ZM102.138 105.292C101.348 102.346 98.3201 100.598 95.3742 101.387L96.4095 105.251C97.2216 105.033 98.0564 105.515 98.274 106.328L102.138 105.292ZM98.2328 112.056C101.179 111.266 102.927 108.238 102.138 105.292L98.274 106.328C98.4916 107.14 98.0096 107.974 97.1975 108.192L98.2328 112.056Z" fill="white"/>
<circle cx="128" cy="151" r="18" stroke="white" stroke-width="5"/>
<path d="M128 157L128 145" stroke="white" stroke-width="5" stroke-linecap="square"/>
<path d="M134 151L122 151" stroke="white" stroke-width="5" stroke-linecap="square"/>
</svg>
