<svg width="56" height="56" viewBox="0 0 56 56" fill="none" xmlns="http://www.w3.org/2000/svg">
<rect width="56" height="56" rx="5" fill="#FF6161"/>
<path fill-rule="evenodd" clip-rule="evenodd" d="M43.75 17.5H12.25V22.75C13.6545 22.75 14.3567 22.75 14.8611 23.0871C15.0795 23.233 15.267 23.4205 15.4129 23.6389C15.75 24.1433 15.75 24.8455 15.75 26.25V37.75C15.75 40.5784 15.75 41.9926 16.6287 42.8713C17.5074 43.75 18.9216 43.75 21.75 43.75H34.25C37.0784 43.75 38.4926 43.75 39.3713 42.8713C40.25 41.9926 40.25 40.5784 40.25 37.75V26.25C40.25 24.8455 40.25 24.1433 40.5871 23.6389C40.733 23.4205 40.9205 23.233 41.1389 23.0871C41.6433 22.75 42.3455 22.75 43.75 22.75V17.5ZM24.625 26.25C24.625 25.6977 24.1773 25.25 23.625 25.25C23.0727 25.25 22.625 25.6977 22.625 26.25V35C22.625 35.5523 23.0727 36 23.625 36C24.1773 36 24.625 35.5523 24.625 35V26.25ZM33.375 26.25C33.375 25.6977 32.9273 25.25 32.375 25.25C31.8227 25.25 31.375 25.6977 31.375 26.25V35C31.375 35.5523 31.8227 36 32.375 36C32.9273 36 33.375 35.5523 33.375 35V26.25Z" fill="white"/>
<path d="M24.6193 12.8985C24.8187 12.7125 25.2581 12.5481 25.8693 12.4308C26.4806 12.3136 27.2295 12.25 28 12.25C28.7705 12.25 29.5194 12.3136 30.1307 12.4308C30.7419 12.5481 31.1813 12.7125 31.3807 12.8985" stroke="white" stroke-width="2" stroke-linecap="round"/>
</svg>
