<svg width="56" height="56" viewBox="0 0 56 56" fill="none" xmlns="http://www.w3.org/2000/svg">
<rect width="56" height="56" rx="5" fill="#4C9AF7"/>
<path d="M44.625 35.125H34.7168L31.3584 38.4834C30.4641 39.3777 29.2691 39.875 28 39.875C26.7309 39.875 25.5389 39.381 24.6416 38.4834L21.2832 35.125H11.375C10.0636 35.125 9 36.1886 9 37.5V44.625C9 45.9364 10.0636 47 11.375 47H44.625C45.9364 47 47 45.9364 47 44.625V37.5C47 36.1863 45.9387 35.125 44.625 35.125ZM41.0625 42.8438C40.0828 42.8438 39.2812 42.0422 39.2812 41.0625C39.2812 40.0828 40.0828 39.2812 41.0625 39.2812C42.0422 39.2812 42.8438 40.0828 42.8438 41.0625C42.8438 42.0422 42.0422 42.8438 41.0625 42.8438ZM26.3227 36.8023C26.7828 37.2699 27.3914 37.5 28 37.5C28.6086 37.5 29.2157 37.2681 29.6788 36.8042L39.1788 27.3042C40.1058 26.3765 40.1058 24.8735 39.1788 23.9458C38.2511 23.0181 36.7474 23.0181 35.8204 23.9458L30.375 29.3953V11.375C30.375 10.0636 29.3114 9 28 9C26.6863 9 25.625 10.0636 25.625 11.375V29.3953L20.1773 23.9477C19.2504 23.0199 17.7467 23.0199 16.8189 23.9477C15.892 24.8754 15.892 26.3783 16.8189 27.3061L26.3227 36.8023Z" fill="white"/>
</svg>
