<svg width="56" height="56" viewBox="0 0 56 56" fill="none" xmlns="http://www.w3.org/2000/svg">
<rect width="56" height="56" rx="5" fill="#F7DB4C"/>
<path fill-rule="evenodd" clip-rule="evenodd" d="M29.4819 19.8514L33.5047 15.8286C34.838 14.4953 35.5047 13.8286 36.3331 13.8286C37.1615 13.8286 37.8282 14.4953 39.1615 15.8286L40.1713 16.8384C41.5047 18.1718 42.1713 18.8384 42.1713 19.6669C42.1713 20.4953 41.5047 21.1619 40.1713 22.4953L36.1848 26.4818C33.4165 24.8716 31.1121 22.5844 29.4819 19.8514ZM28.0276 21.3057L15.5228 33.8105C15.0978 34.2355 14.8852 34.4481 14.7455 34.7092C14.6058 34.9703 14.5468 35.265 14.4289 35.8544L13.1469 42.2647C13.0803 42.5974 13.0471 42.7637 13.1417 42.8583C13.2363 42.9529 13.4026 42.9196 13.7352 42.8531L13.7352 42.8531L13.7352 42.8531L20.1455 41.571C20.735 41.4531 21.0297 41.3942 21.2908 41.2545C21.5519 41.1147 21.7644 40.9022 22.1895 40.4771L34.7269 27.9398C32.0092 26.2655 29.7192 23.9915 28.0276 21.3057Z" fill="white"/>
</svg>
