<svg width="56" height="56" viewBox="0 0 56 56" fill="none" xmlns="http://www.w3.org/2000/svg">
<rect width="56" height="56" rx="5" fill="#AB4CF7"/>
<path d="M31.457 20.8672V42H25.3438V20.8672H31.457ZM24.9727 15.3984C24.9727 14.513 25.2852 13.7904 25.9102 13.2305C26.5352 12.6576 27.3555 12.3711 28.3711 12.3711C29.3867 12.3711 30.207 12.6576 30.832 13.2305C31.4701 13.7904 31.7891 14.513 31.7891 15.3984C31.7891 16.2708 31.4701 16.9935 30.832 17.5664C30.207 18.1263 29.3867 18.4062 28.3711 18.4062C27.3555 18.4062 26.5352 18.1263 25.9102 17.5664C25.2852 16.9935 24.9727 16.2708 24.9727 15.3984Z" fill="white"/>
</svg>
