<svg width="36" height="36" viewBox="0 0 36 36" fill="none" xmlns="http://www.w3.org/2000/svg">
<path fill-rule="evenodd" clip-rule="evenodd" d="M16.5 27C22.299 27 27 22.299 27 16.5C27 10.701 22.299 6 16.5 6C10.701 6 6 10.701 6 16.5C6 22.299 10.701 27 16.5 27ZM16.5 9.5C15.5807 9.5 14.6705 9.68106 13.8212 10.0328C12.9719 10.3846 12.2003 10.9002 11.5503 11.5503C10.9002 12.2003 10.3846 12.9719 10.0328 13.8212C9.68106 14.6705 9.5 15.5807 9.5 16.5C9.5 17.0523 9.94772 17.5 10.5 17.5C11.0523 17.5 11.5 17.0523 11.5 16.5C11.5 15.8434 11.6293 15.1932 11.8806 14.5866C12.1319 13.98 12.5002 13.4288 12.9645 12.9645C13.4288 12.5002 13.98 12.1319 14.5866 11.8806C15.1932 11.6293 15.8434 11.5 16.5 11.5C17.0523 11.5 17.5 11.0523 17.5 10.5C17.5 9.94772 17.0523 9.5 16.5 9.5Z" fill="#656565"/>
<path d="M30 30L27 27" stroke="#656565" stroke-width="2" stroke-linecap="round"/>
</svg>
