<svg width="56" height="56" viewBox="0 0 56 56" fill="none" xmlns="http://www.w3.org/2000/svg">
<rect width="56" height="56" rx="5" fill="#4BC76C"/>
<g clip-path="url(#clip0_264_466)">
<path d="M27.8438 21.218C28.0625 21.1951 28.2813 21.1875 28.5 21.1875C32.6406 21.1875 36 24.3943 36 28.5C36 32.5371 32.6406 35.8125 28.5 35.8125C24.2891 35.8125 21 32.5371 21 28.5C21 28.2867 21.0078 28.0734 21.0313 27.8602C21.7578 28.2029 22.6016 28.5 23.5 28.5C26.2578 28.5 28.5 26.3139 28.5 23.625C28.5 22.749 28.1953 21.9264 27.8438 21.218ZM43.5469 17.577C47.2031 20.8828 49.6484 24.7752 50.8047 27.5631C51.0625 28.1648 51.0625 28.8352 50.8047 29.4369C49.6484 32.1562 47.2031 36.0486 43.5469 39.423C39.8672 42.7594 34.8125 45.5625 28.5 45.5625C22.1875 45.5625 17.1328 42.7594 13.4547 39.423C9.79845 36.0486 7.3547 32.1562 6.19228 29.4369C5.93591 28.8352 5.93591 28.1648 6.19228 27.5631C7.3547 24.7752 9.79845 20.8828 13.4547 17.577C17.1328 14.2437 22.1875 11.4375 28.5 11.4375C34.8125 11.4375 39.8672 14.2437 43.5469 17.577ZM28.5 17.5312C22.2891 17.5312 17.25 22.4443 17.25 28.5C17.25 34.5557 22.2891 39.4688 28.5 39.4688C34.7109 39.4688 39.75 34.5557 39.75 28.5C39.75 22.4443 34.7109 17.5312 28.5 17.5312Z" fill="white"/>
</g>
<defs>
<clipPath id="clip0_264_466">
<rect width="45" height="39" fill="white" transform="translate(6 9)"/>
</clipPath>
</defs>
</svg>
