<svg width="129" height="167" viewBox="0 0 129 167" fill="none" xmlns="http://www.w3.org/2000/svg">
<path fill-rule="evenodd" clip-rule="evenodd" d="M75.109 5.03953C73.1729 3.09321 70.5449 2 67.8025 2H26.0467C20.3573 2 15.7417 6.61565 15.7417 12.305V115.355C15.7417 121.044 20.3573 125.66 26.0467 125.66H84.4399V129.095C84.4399 130.993 82.904 132.53 81.0049 132.53H12.305C10.4098 132.53 8.86999 130.99 8.86999 129.095V19.175C8.86999 17.2779 7.33209 15.74 5.43499 15.74C3.5379 15.74 2 17.2779 2 19.175V129.095C2 134.784 6.61565 139.4 12.305 139.4H81.0049C86.6992 139.4 91.3098 134.786 91.3098 129.095V125.66H94.7466C100.441 125.66 105.052 121.046 105.052 115.355V46.7105H108.565C110.462 46.7105 112 45.1726 112 43.2755C112 41.3784 110.462 39.8405 108.565 39.8405H105.052V39.4002C105.052 36.683 103.974 34.0765 102.059 32.141L75.109 5.03953ZM67.3588 39.8405H98.1815V39.4002C98.1815 38.4971 97.8212 37.6254 97.1816 36.979L70.2379 9.88408C69.5913 9.23406 68.716 8.86997 67.8024 8.86997H26.0466C24.1515 8.86997 22.6116 10.4098 22.6116 12.305V115.355C22.6116 117.25 24.1515 118.79 26.0466 118.79H94.7465C96.6456 118.79 98.1815 117.253 98.1815 115.355V46.7105H64.6176C62.3421 46.7105 60.4888 44.8698 60.4888 42.5885V18.997C60.4888 17.0999 62.0267 15.562 63.9238 15.562C65.8209 15.562 67.3588 17.0999 67.3588 18.997V39.8405Z" fill="white"/>
<path d="M75.109 5.03953L76.1726 3.98184L76.1724 3.98169L75.109 5.03953ZM84.4399 125.66H85.9399V124.16H84.4399V125.66ZM91.3098 125.66V124.16H89.8098V125.66H91.3098ZM105.052 46.7105V45.2105H103.552V46.7105H105.052ZM105.052 39.8405H103.552V41.3405H105.052V39.8405ZM102.059 32.141L103.126 31.086L103.123 31.0833L102.059 32.141ZM98.1815 39.8405V41.3405H99.6815V39.8405H98.1815ZM67.3588 39.8405H65.8588V41.3405H67.3588V39.8405ZM97.1816 36.979L98.2479 35.924L98.2452 35.9213L97.1816 36.979ZM70.2379 9.88408L71.3015 8.82639L71.3013 8.82624L70.2379 9.88408ZM98.1815 46.7105H99.6815V45.2105H98.1815V46.7105ZM67.8025 3.5C70.1452 3.5 72.3907 4.43378 74.0455 6.09738L76.1724 3.98169C73.9552 1.75264 70.9445 0.5 67.8025 0.5V3.5ZM26.0467 3.5H67.8025V0.5H26.0467V3.5ZM17.2417 12.305C17.2417 7.44408 21.1858 3.5 26.0467 3.5V0.5C19.5289 0.5 14.2417 5.78723 14.2417 12.305H17.2417ZM17.2417 115.355V12.305H14.2417V115.355H17.2417ZM26.0467 124.16C21.1858 124.16 17.2417 120.216 17.2417 115.355H14.2417C14.2417 121.873 19.5289 127.16 26.0467 127.16V124.16ZM84.4399 124.16H26.0467V127.16H84.4399V124.16ZM82.9399 125.66V129.095H85.9399V125.66H82.9399ZM82.9399 129.095C82.9399 130.165 82.0752 131.03 81.0049 131.03V134.03C83.7327 134.03 85.9399 131.821 85.9399 129.095H82.9399ZM81.0049 131.03H12.305V134.03H81.0049V131.03ZM12.305 131.03C11.2383 131.03 10.37 130.161 10.37 129.095H7.36999C7.36999 131.818 9.58142 134.03 12.305 134.03V131.03ZM10.37 129.095V19.175H7.36999V129.095H10.37ZM10.37 19.175C10.37 16.4495 8.16052 14.24 5.43499 14.24V17.24C6.50366 17.24 7.36999 18.1063 7.36999 19.175H10.37ZM5.43499 14.24C2.70947 14.24 0.5 16.4495 0.5 19.175H3.5C3.5 18.1063 4.36633 17.24 5.43499 17.24V14.24ZM0.5 19.175V129.095H3.5V19.175H0.5ZM0.5 129.095C0.5 135.613 5.78723 140.9 12.305 140.9V137.9C7.44408 137.9 3.5 133.956 3.5 129.095H0.5ZM12.305 140.9H81.0049V137.9H12.305V140.9ZM81.0049 140.9C87.5279 140.9 92.8098 135.614 92.8098 129.095H89.8098C89.8098 133.958 85.8705 137.9 81.0049 137.9V140.9ZM92.8098 129.095V125.66H89.8098V129.095H92.8098ZM94.7466 124.16H91.3098V127.16H94.7466V124.16ZM103.552 115.355C103.552 120.218 99.6122 124.16 94.7466 124.16V127.16C101.27 127.16 106.552 121.874 106.552 115.355H103.552ZM103.552 46.7105V115.355H106.552V46.7105H103.552ZM108.565 45.2105H105.052V48.2105H108.565V45.2105ZM110.5 43.2755C110.5 44.3442 109.634 45.2105 108.565 45.2105V48.2105C111.29 48.2105 113.5 46.001 113.5 43.2755H110.5ZM108.565 41.3405C109.634 41.3405 110.5 42.2068 110.5 43.2755H113.5C113.5 40.55 111.29 38.3405 108.565 38.3405V41.3405ZM105.052 41.3405H108.565V38.3405H105.052V41.3405ZM103.552 39.4002V39.8405H106.552V39.4002H103.552ZM100.993 33.196C102.632 34.8525 103.552 37.0806 103.552 39.4002H106.552C106.552 36.2853 105.316 33.3004 103.126 31.086L100.993 33.196ZM74.0453 6.09722L100.996 33.1987L103.123 31.0833L76.1726 3.98184L74.0453 6.09722ZM98.1815 38.3405H67.3588V41.3405H98.1815V38.3405ZM96.6815 39.4002V39.8405H99.6815V39.4002H96.6815ZM96.1153 38.0339C96.4796 38.4021 96.6815 38.8958 96.6815 39.4002H99.6815C99.6815 38.0984 99.1627 36.8487 98.2479 35.924L96.1153 38.0339ZM69.1742 10.9418L96.118 38.0366L98.2452 35.9213L71.3015 8.82639L69.1742 10.9418ZM67.8024 10.37C68.3159 10.37 68.8087 10.5743 69.1744 10.9419L71.3013 8.82624C70.3739 7.89386 69.1162 7.36997 67.8024 7.36997V10.37ZM26.0466 10.37H67.8024V7.36997H26.0466V10.37ZM24.1116 12.305C24.1116 11.2382 24.9799 10.37 26.0466 10.37V7.36997C23.323 7.36997 21.1116 9.5814 21.1116 12.305H24.1116ZM24.1116 115.355V12.305H21.1116V115.355H24.1116ZM26.0466 117.29C24.9799 117.29 24.1116 116.421 24.1116 115.355H21.1116C21.1116 118.078 23.323 120.29 26.0466 120.29V117.29ZM94.7465 117.29H26.0466V120.29H94.7465V117.29ZM96.6815 115.355C96.6815 116.425 95.8168 117.29 94.7465 117.29V120.29C97.4743 120.29 99.6815 118.081 99.6815 115.355H96.6815ZM96.6815 46.7105V115.355H99.6815V46.7105H96.6815ZM64.6176 48.2105H98.1815V45.2105H64.6176V48.2105ZM58.9888 42.5885C58.9888 45.7029 61.5184 48.2105 64.6176 48.2105V45.2105C63.1659 45.2105 61.9888 44.0368 61.9888 42.5885H58.9888ZM58.9888 18.997V42.5885H61.9888V18.997H58.9888ZM63.9238 14.062C61.1982 14.062 58.9888 16.2714 58.9888 18.997H61.9888C61.9888 17.9283 62.8551 17.062 63.9238 17.062V14.062ZM68.8588 18.997C68.8588 16.2714 66.6493 14.062 63.9238 14.062V17.062C64.9924 17.062 65.8588 17.9283 65.8588 18.997H68.8588ZM68.8588 39.8405V18.997H65.8588V39.8405H68.8588Z" fill="white"/>
<circle cx="105" cy="143" r="18" stroke="white" stroke-width="5"/>
<path d="M105 149L105 137" stroke="white" stroke-width="5" stroke-linecap="square"/>
<path d="M111 143L99 143" stroke="white" stroke-width="5" stroke-linecap="square"/>
</svg>
