<svg width="146" height="137" viewBox="0 0 146 137" fill="none" xmlns="http://www.w3.org/2000/svg">
<path d="M92.834 128.945C90.3271 119.59 84.8031 111.322 77.1188 105.426C69.4344 99.5295 60.0192 96.3335 50.3333 96.3335C40.6474 96.3335 31.2321 99.5295 23.5478 105.426C15.8634 111.322 10.3394 119.59 7.83252 128.945M116.333 52.3335V96.3335M138.333 74.3335H94.3333M79.6666 37.6668C79.6666 53.8672 66.5336 67.0002 50.3333 67.0002C34.1329 67.0002 20.9999 53.8672 20.9999 37.6668C20.9999 21.4665 34.1329 8.3335 50.3333 8.3335C66.5336 8.3335 79.6666 21.4665 79.6666 37.6668Z" stroke="white" stroke-width="15" stroke-linecap="round"/>
</svg>
