<svg width="167" height="149" viewBox="0 0 167 149" fill="none" xmlns="http://www.w3.org/2000/svg">
<path d="M30.625 120.542H55.875C67.7227 120.542 73.6466 120.542 77.7091 123.702C78.692 124.466 79.5758 125.35 80.3403 126.333C83.5 130.395 83.5 136.319 83.5 148.167V30.8335C83.5 16.6914 83.5 9.62029 79.1066 5.22689C74.7132 0.833496 67.6421 0.833496 53.5 0.833496H30.625C16.4829 0.833496 9.4118 0.833496 5.0184 5.22689C0.625 9.62029 0.625 16.6914 0.625 30.8335V90.5418C0.625 104.684 0.625 111.755 5.0184 116.148C9.41179 120.542 16.4828 120.542 30.6249 120.542H30.625Z" fill="#1A2876"/>
<path d="M136.375 120.542H120.333C108.486 120.542 102.562 120.542 98.4994 123.702C97.5165 124.466 96.6327 125.35 95.8682 126.333C92.7085 130.395 92.7085 136.319 92.7085 148.167V30.8335C92.7085 16.6914 92.7085 9.62029 97.1019 5.22689C101.495 0.833496 108.566 0.833496 122.708 0.833496H136.375C150.517 0.833496 157.588 0.833496 161.982 5.22689C166.375 9.62029 166.375 16.6914 166.375 30.8335V90.5418C166.375 104.684 166.375 111.755 161.982 116.148C157.588 120.542 150.517 120.542 136.375 120.542H136.375Z" fill="#3252C1"/>
<path d="M19.0415 0.983497C19.0415 0.900654 19.1087 0.833496 19.1915 0.833496H46.5165C46.5994 0.833496 46.6665 0.900653 46.6665 0.983496V46.2716C46.6665 46.4943 46.3972 46.6059 46.2397 46.4484L33.0308 33.2394C32.9332 33.1418 32.7749 33.1418 32.6772 33.2394L19.4683 46.4484C19.3108 46.6059 19.0415 46.4943 19.0415 46.2716V0.983497Z" fill="#3252C1"/>
</svg>
