<svg width="56" height="56" viewBox="0 0 56 56" fill="none" xmlns="http://www.w3.org/2000/svg">
<rect width="56" height="56" rx="5" fill="#4FF64C"/>
<path d="M27.3516 10.3047C28.002 9.89845 28.9342 9.89845 29.6496 10.3047L42.0579 17.4L42.3108 17.5156V17.5806L45.8374 19.5535C46.748 20.0738 47.1888 21.1433 46.9214 22.1551C46.654 23.1668 45.7363 23.875 44.6233 23.875H12.2478C11.2642 23.875 10.3468 23.1668 10.0777 22.1551C9.80856 21.1433 10.255 20.0738 11.1652 19.5535L14.5603 17.5806V17.5156L14.9412 17.4L27.3516 10.3047ZM14.6254 26.1875H19.2504V40.0625H22.1411V26.1875H26.7662V40.0625H30.235V26.1875H34.8601V40.0625H37.7508V26.1875H42.3758V40.3732C42.4192 40.3949 42.4626 40.3588 42.5059 40.4527L45.9747 42.7652C46.8203 43.3289 47.196 44.384 46.8997 45.3596C46.6035 46.3352 45.7073 47 44.6884 47H12.3128C11.2939 47 10.3949 46.3352 10.0995 45.3596C9.80422 44.384 10.1822 43.3289 11.0301 42.7652L14.4989 40.4527C14.5401 40.3588 14.5827 40.3949 14.6254 40.3732V26.1875Z" fill="white"/>
</svg>
