<svg width="56" height="56" viewBox="0 0 56 56" fill="none" xmlns="http://www.w3.org/2000/svg">
<rect width="56" height="56" rx="5" fill="#3252C1"/>
<path d="M44 34.2812V13.4688C44 11.553 42.4643 10 40.5714 10H37.1429V23.81C37.1429 24.779 36.0343 25.3189 35.35 24.7126L31.4286 21.5625L27.5071 24.7783C26.8214 25.3781 25.7143 24.8434 25.7143 23.81V10H18.8571C15.07 10 12 13.106 12 16.9375V40.0625C12 43.894 15.07 47 18.8571 47H41.7143C42.9764 47 44 45.9644 44 44.6875C44 43.8405 43.5281 43.1323 42.8571 42.7291V36.8496C43.5571 36.218 44 35.3074 44 34.2812ZM39.4286 42.375H18.8571C17.595 42.375 16.5714 41.3394 16.5714 40.0625C16.5714 38.7856 17.595 37.75 18.8571 37.75H39.4286V42.375Z" fill="white"/>
</svg>
