<svg width="42" height="41" viewBox="0 0 42 41" fill="none" xmlns="http://www.w3.org/2000/svg">
<path d="M16.0079 39.8622C15.4105 39.2104 14.6287 37.7673 14.2705 36.6553C13.7175 34.9387 13.4478 34.6853 12.4843 34.9771C7.74008 36.4137 5.25988 35.6046 5.25988 32.6201C5.25988 30.7275 6.3205 29.6595 8.9902 28.8639C10.1421 28.5206 11.0846 27.9678 11.0846 27.6354C11.0846 27.1066 8.99005 20.4683 8.70867 20.1054C8.65013 20.0299 7.58195 20.3261 6.33495 20.7638C3.3305 21.8181 2.29217 21.7678 1.02368 20.506C-1.1905 18.3037 0.303947 15.4934 4.38018 14.1943C6.10601 13.6442 6.36071 13.376 6.06736 12.4176C4.62301 7.69876 5.43654 5.2318 8.43703 5.2318C10.3398 5.2318 11.4135 6.28676 12.2133 8.94222C12.5585 10.088 13.1143 11.0255 13.4485 11.0255C13.9801 11.0255 20.654 8.94206 21.0189 8.66218C21.0948 8.60395 20.7969 7.54148 20.357 6.30114C19.2969 3.31272 19.3476 2.27993 20.6161 1.01822C22.8303 -1.18415 25.6556 0.302323 26.9617 4.3568C27.5147 6.07342 27.7844 6.32675 28.7479 6.03497C33.4921 4.59833 35.9723 5.40752 35.9723 8.39199C35.9723 10.2846 34.9117 11.3526 32.242 12.1482C31.09 12.4914 30.1475 13.0443 30.1475 13.3767C30.1475 13.9055 32.2421 20.5437 32.5235 20.9067C32.5821 20.9822 33.6502 20.6859 34.8972 20.2483C37.9017 19.1939 38.94 19.2443 40.2085 20.506C42.4227 22.7084 40.9282 25.5187 36.852 26.8178C35.1262 27.3678 34.8715 27.636 35.1648 28.5944C36.6092 33.3133 35.7956 35.7803 32.7952 35.7803C30.8924 35.7803 29.8187 34.7253 29.0188 32.0699C28.6737 30.9241 28.1179 29.9866 27.7837 29.9866C27.252 29.9866 20.5782 32.07 20.2133 32.3499C20.1374 32.4081 20.4352 33.4706 20.8752 34.7109C21.9352 37.6994 21.8846 38.7321 20.6161 39.9939C19.22 41.3825 17.3524 41.3291 16.0079 39.8622ZM22.2047 24.4682C23.8065 23.9559 25.2961 23.3759 25.515 23.1793C25.8992 22.8343 24.0213 16.4381 23.2994 15.6333C22.955 15.2492 16.5226 17.1218 15.7121 17.8421C15.3806 18.1367 16.1338 20.8936 17.7139 25.1693C17.8588 25.5615 18.2732 25.7737 18.6348 25.641C18.9964 25.5083 20.6028 24.9806 22.2047 24.4682Z" fill="#131833"/>
</svg>
